<svg width="162" height="162" viewBox="0 0 162 162" fill="none" xmlns="http://www.w3.org/2000/svg">
<rect x="80.3809" y="0.000488281" width="3.08225" height="3.10811" rx="1.34409" transform="rotate(45 80.3809 0.000488281)" fill="#61DCDF"/>
<rect x="89.0996" y="8.71924" width="3.08225" height="3.10811" rx="1.34409" transform="rotate(45 89.0996 8.71924)" fill="#61DCDF"/>
<rect x="97.8174" y="17.4365" width="3.08225" height="3.10811" rx="1.34409" transform="rotate(45 97.8174 17.4365)" fill="#61DCDF"/>
<rect x="106.534" y="26.1541" width="3.08225" height="3.10811" rx="1.34409" transform="rotate(45 106.534 26.1541)" fill="#61DCDF"/>
<rect x="115.252" y="34.8713" width="3.08225" height="3.10811" rx="1.34409" transform="rotate(45 115.252 34.8713)" fill="#61DCDF"/>
<rect x="123.971" y="43.5901" width="3.08225" height="3.10811" rx="1.34409" transform="rotate(45 123.971 43.5901)" fill="#61DCDF"/>
<rect x="132.689" y="52.3088" width="3.08225" height="3.10811" rx="1.34409" transform="rotate(45 132.689 52.3088)" fill="#61DCDF"/>
<rect x="141.406" y="61.0261" width="3.08225" height="3.10811" rx="1.34409" transform="rotate(45 141.406 61.0261)" fill="#61DCDF"/>
<rect x="150.124" y="69.7434" width="3.08225" height="3.10811" rx="1.34409" transform="rotate(45 150.124 69.7434)" fill="#61DCDF"/>
<rect x="158.843" y="78.4622" width="3.08225" height="3.10811" rx="1.34409" transform="rotate(45 158.843 78.4622)" fill="#61DCDF"/>
<rect x="71.5898" y="8.79175" width="3.08225" height="3.10811" rx="1.34409" transform="rotate(45 71.5898 8.79175)" fill="#61DCDF"/>
<rect x="80.3086" y="17.5105" width="3.08225" height="3.10811" rx="1.34409" transform="rotate(45 80.3086 17.5105)" fill="#61DCDF"/>
<rect x="89.0254" y="26.2278" width="3.08225" height="3.10811" rx="1.34409" transform="rotate(45 89.0254 26.2278)" fill="#61DCDF"/>
<rect x="97.7432" y="34.9451" width="3.08225" height="3.10811" rx="1.34409" transform="rotate(45 97.7432 34.9451)" fill="#61DCDF"/>
<rect x="106.461" y="43.6626" width="3.08225" height="3.10811" rx="1.34409" transform="rotate(45 106.461 43.6626)" fill="#61DCDF"/>
<rect x="115.18" y="52.3813" width="3.08225" height="3.10811" rx="1.34409" transform="rotate(45 115.18 52.3813)" fill="#61DCDF"/>
<rect x="123.897" y="61.0999" width="3.08225" height="3.10811" rx="1.34409" transform="rotate(45 123.897 61.0999)" fill="#61DCDF"/>
<rect x="132.615" y="69.8174" width="3.08225" height="3.10811" rx="1.34409" transform="rotate(45 132.615 69.8174)" fill="#61DCDF"/>
<rect x="141.333" y="78.5347" width="3.08225" height="3.10811" rx="1.34409" transform="rotate(45 141.333 78.5347)" fill="#61DCDF"/>
<rect x="150.052" y="87.2534" width="3.08225" height="3.10811" rx="1.34409" transform="rotate(45 150.052 87.2534)" fill="#61DCDF"/>
<rect x="62.7988" y="17.583" width="3.08225" height="3.10811" rx="1.34409" transform="rotate(45 62.7988 17.583)" fill="#61DCDF"/>
<rect x="71.5176" y="26.3015" width="3.08225" height="3.10811" rx="1.34409" transform="rotate(45 71.5176 26.3015)" fill="#61DCDF"/>
<rect x="80.2344" y="35.019" width="3.08225" height="3.10811" rx="1.34409" transform="rotate(45 80.2344 35.019)" fill="#61DCDF"/>
<rect x="88.9521" y="43.7363" width="3.08225" height="3.10811" rx="1.34409" transform="rotate(45 88.9521 43.7363)" fill="#61DCDF"/>
<rect x="97.6689" y="52.4536" width="3.08225" height="3.10811" rx="1.34409" transform="rotate(45 97.6689 52.4536)" fill="#61DCDF"/>
<rect x="106.388" y="61.1726" width="3.08225" height="3.10811" rx="1.34409" transform="rotate(45 106.388 61.1726)" fill="#61DCDF"/>
<rect x="115.106" y="69.8911" width="3.08225" height="3.10811" rx="1.34409" transform="rotate(45 115.106 69.8911)" fill="#61DCDF"/>
<rect x="123.824" y="78.6086" width="3.08225" height="3.10811" rx="1.34409" transform="rotate(45 123.824 78.6086)" fill="#61DCDF"/>
<rect x="132.541" y="87.3259" width="3.08225" height="3.10811" rx="1.34409" transform="rotate(45 132.541 87.3259)" fill="#61DCDF"/>
<rect x="141.26" y="96.0447" width="3.08225" height="3.10811" rx="1.34409" transform="rotate(45 141.26 96.0447)" fill="#61DCDF"/>
<rect x="54.0078" y="26.3733" width="3.08225" height="3.10811" rx="1.34409" transform="rotate(45 54.0078 26.3733)" fill="#61DCDF"/>
<rect x="62.7266" y="35.092" width="3.08225" height="3.10811" rx="1.34409" transform="rotate(45 62.7266 35.092)" fill="#61DCDF"/>
<rect x="71.4443" y="43.8096" width="3.08225" height="3.10811" rx="1.34409" transform="rotate(45 71.4443 43.8096)" fill="#61DCDF"/>
<rect x="80.1611" y="52.5269" width="3.08225" height="3.10811" rx="1.34409" transform="rotate(45 80.1611 52.5269)" fill="#61DCDF"/>
<rect x="88.8789" y="61.2441" width="3.08225" height="3.10811" rx="1.34409" transform="rotate(45 88.8789 61.2441)" fill="#61DCDF"/>
<rect x="97.5977" y="69.9629" width="3.08225" height="3.10811" rx="1.34409" transform="rotate(45 97.5977 69.9629)" fill="#61DCDF"/>
<rect x="106.316" y="78.6816" width="3.08225" height="3.10811" rx="1.34409" transform="rotate(45 106.316 78.6816)" fill="#61DCDF"/>
<rect x="115.033" y="87.3992" width="3.08225" height="3.10811" rx="1.34409" transform="rotate(45 115.033 87.3992)" fill="#61DCDF"/>
<rect x="123.751" y="96.1165" width="3.08225" height="3.10811" rx="1.34409" transform="rotate(45 123.751 96.1165)" fill="#61DCDF"/>
<rect x="132.47" y="104.835" width="3.08225" height="3.10811" rx="1.34409" transform="rotate(45 132.47 104.835)" fill="#61DCDF"/>
<rect x="45.2168" y="35.1646" width="3.08225" height="3.10811" rx="1.34409" transform="rotate(45 45.2168 35.1646)" fill="#61DCDF"/>
<rect x="53.9355" y="43.8833" width="3.08225" height="3.10811" rx="1.34409" transform="rotate(45 53.9355 43.8833)" fill="#61DCDF"/>
<rect x="62.6523" y="52.6008" width="3.08225" height="3.10811" rx="1.34409" transform="rotate(45 62.6523 52.6008)" fill="#61DCDF"/>
<rect x="71.3701" y="61.3181" width="3.08225" height="3.10811" rx="1.34409" transform="rotate(45 71.3701 61.3181)" fill="#61DCDF"/>
<rect x="80.0879" y="70.0354" width="3.08225" height="3.10811" rx="1.34409" transform="rotate(45 80.0879 70.0354)" fill="#61DCDF"/>
<rect x="88.8066" y="78.7542" width="3.08225" height="3.10811" rx="1.34409" transform="rotate(45 88.8066 78.7542)" fill="#61DCDF"/>
<rect x="97.5254" y="87.4729" width="3.08225" height="3.10811" rx="1.34409" transform="rotate(45 97.5254 87.4729)" fill="#61DCDF"/>
<rect x="106.242" y="96.1902" width="3.08225" height="3.10811" rx="1.34409" transform="rotate(45 106.242 96.1902)" fill="#61DCDF"/>
<rect x="114.96" y="104.908" width="3.08225" height="3.10811" rx="1.34409" transform="rotate(45 114.96 104.908)" fill="#61DCDF"/>
<rect x="123.679" y="113.626" width="3.08225" height="3.10811" rx="1.34409" transform="rotate(45 123.679 113.626)" fill="#61DCDF"/>
<rect x="36.4258" y="43.9558" width="3.08225" height="3.10811" rx="1.34409" transform="rotate(45 36.4258 43.9558)" fill="#61DCDF"/>
<rect x="45.1445" y="52.6746" width="3.08225" height="3.10811" rx="1.34409" transform="rotate(45 45.1445 52.6746)" fill="#61DCDF"/>
<rect x="53.8613" y="61.3918" width="3.08225" height="3.10811" rx="1.34409" transform="rotate(45 53.8613 61.3918)" fill="#61DCDF"/>
<rect x="62.5791" y="70.1094" width="3.08225" height="3.10811" rx="1.34409" transform="rotate(45 62.5791 70.1094)" fill="#61DCDF"/>
<rect x="71.2959" y="78.8267" width="3.08225" height="3.10811" rx="1.34409" transform="rotate(45 71.2959 78.8267)" fill="#61DCDF"/>
<rect x="80.0146" y="87.5454" width="3.08225" height="3.10811" rx="1.34409" transform="rotate(45 80.0146 87.5454)" fill="#61DCDF"/>
<rect x="88.7334" y="96.2642" width="3.08225" height="3.10811" rx="1.34409" transform="rotate(45 88.7334 96.2642)" fill="#61DCDF"/>
<rect x="97.4512" y="104.981" width="3.08225" height="3.10811" rx="1.34409" transform="rotate(45 97.4512 104.981)" fill="#61DCDF"/>
<rect x="106.169" y="113.699" width="3.08225" height="3.10811" rx="1.34409" transform="rotate(45 106.169 113.699)" fill="#61DCDF"/>
<rect x="114.888" y="122.417" width="3.08225" height="3.10811" rx="1.34409" transform="rotate(45 114.888 122.417)" fill="#61DCDF"/>
<rect x="27.6338" y="52.7471" width="3.08225" height="3.10811" rx="1.34409" transform="rotate(45 27.6338 52.7471)" fill="#61DCDF"/>
<rect x="19.1562" y="61.2251" width="3.08225" height="3.10811" rx="1.34409" transform="rotate(45 19.1562 61.2251)" fill="#61DCDF"/>
<rect x="10.6777" y="69.7041" width="3.08225" height="3.10811" rx="1.34409" transform="rotate(45 10.6777 69.7041)" fill="#61DCDF"/>
<rect x="2.19824" y="78.1829" width="3.08225" height="3.10811" rx="1.34409" transform="rotate(45 2.19824 78.1829)" fill="#61DCDF"/>
<rect x="36.3525" y="61.4658" width="3.08225" height="3.10811" rx="1.34409" transform="rotate(45 36.3525 61.4658)" fill="#61DCDF"/>
<rect x="27.875" y="69.9438" width="3.08225" height="3.10811" rx="1.34409" transform="rotate(45 27.875 69.9438)" fill="#61DCDF"/>
<rect x="19.3965" y="78.4229" width="3.08225" height="3.10811" rx="1.34409" transform="rotate(45 19.3965 78.4229)" fill="#61DCDF"/>
<rect x="10.917" y="86.9016" width="3.08225" height="3.10811" rx="1.34409" transform="rotate(45 10.917 86.9016)" fill="#61DCDF"/>
<rect x="45.0703" y="70.1831" width="3.08225" height="3.10811" rx="1.34409" transform="rotate(45 45.0703 70.1831)" fill="#61DCDF"/>
<rect x="36.5918" y="78.6614" width="3.08225" height="3.10811" rx="1.34409" transform="rotate(45 36.5918 78.6614)" fill="#61DCDF"/>
<rect x="28.1133" y="87.1401" width="3.08225" height="3.10811" rx="1.34409" transform="rotate(45 28.1133 87.1401)" fill="#61DCDF"/>
<rect x="19.6348" y="95.6191" width="3.08225" height="3.10811" rx="1.34409" transform="rotate(45 19.6348 95.6191)" fill="#61DCDF"/>
<rect x="53.7881" y="78.9006" width="3.08225" height="3.10811" rx="1.34409" transform="rotate(45 53.7881 78.9006)" fill="#61DCDF"/>
<rect x="45.3096" y="87.3787" width="3.08225" height="3.10811" rx="1.34409" transform="rotate(45 45.3096 87.3787)" fill="#61DCDF"/>
<rect x="36.8311" y="95.8574" width="3.08225" height="3.10811" rx="1.34409" transform="rotate(45 36.8311 95.8574)" fill="#61DCDF"/>
<rect x="28.3516" y="104.336" width="3.08225" height="3.10811" rx="1.34409" transform="rotate(45 28.3516 104.336)" fill="#61DCDF"/>
<rect x="62.5049" y="87.6179" width="3.08225" height="3.10811" rx="1.34409" transform="rotate(45 62.5049 87.6179)" fill="#61DCDF"/>
<rect x="54.0273" y="96.0959" width="3.08225" height="3.10811" rx="1.34409" transform="rotate(45 54.0273 96.0959)" fill="#61DCDF"/>
<rect x="45.5479" y="104.575" width="3.08225" height="3.10811" rx="1.34409" transform="rotate(45 45.5479 104.575)" fill="#61DCDF"/>
<rect x="37.0693" y="113.054" width="3.08225" height="3.10811" rx="1.34409" transform="rotate(45 37.0693 113.054)" fill="#61DCDF"/>
<rect x="71.2236" y="96.3367" width="3.08225" height="3.10811" rx="1.34409" transform="rotate(45 71.2236 96.3367)" fill="#61DCDF"/>
<rect x="62.7461" y="104.815" width="3.08225" height="3.10811" rx="1.34409" transform="rotate(45 62.7461 104.815)" fill="#61DCDF"/>
<rect x="54.2666" y="113.294" width="3.08225" height="3.10811" rx="1.34409" transform="rotate(45 54.2666 113.294)" fill="#61DCDF"/>
<rect x="45.7881" y="121.772" width="3.08225" height="3.10811" rx="1.34409" transform="rotate(45 45.7881 121.772)" fill="#61DCDF"/>
<rect x="79.9424" y="105.055" width="3.08225" height="3.10811" rx="1.34409" transform="rotate(45 79.9424 105.055)" fill="#61DCDF"/>
<rect x="71.4648" y="113.533" width="3.08225" height="3.10811" rx="1.34409" transform="rotate(45 71.4648 113.533)" fill="#61DCDF"/>
<rect x="62.9854" y="122.012" width="3.08225" height="3.10811" rx="1.34409" transform="rotate(45 62.9854 122.012)" fill="#61DCDF"/>
<rect x="54.5068" y="130.491" width="3.08225" height="3.10811" rx="1.34409" transform="rotate(45 54.5068 130.491)" fill="#61DCDF"/>
<rect x="88.6602" y="113.773" width="3.08225" height="3.10811" rx="1.34409" transform="rotate(45 88.6602 113.773)" fill="#61DCDF"/>
<rect x="80.1816" y="122.251" width="3.08225" height="3.10811" rx="1.34409" transform="rotate(45 80.1816 122.251)" fill="#61DCDF"/>
<rect x="71.7031" y="130.73" width="3.08225" height="3.10811" rx="1.34409" transform="rotate(45 71.7031 130.73)" fill="#61DCDF"/>
<rect x="63.2236" y="139.208" width="3.08225" height="3.10811" rx="1.34409" transform="rotate(45 63.2236 139.208)" fill="#61DCDF"/>
<rect x="97.377" y="122.49" width="3.08225" height="3.10811" rx="1.34409" transform="rotate(45 97.377 122.49)" fill="#61DCDF"/>
<rect x="88.8994" y="130.968" width="3.08225" height="3.10811" rx="1.34409" transform="rotate(45 88.8994 130.968)" fill="#61DCDF"/>
<rect x="80.4199" y="139.447" width="3.08225" height="3.10811" rx="1.34409" transform="rotate(45 80.4199 139.447)" fill="#61DCDF"/>
<rect x="71.9414" y="147.926" width="3.08225" height="3.10811" rx="1.34409" transform="rotate(45 71.9414 147.926)" fill="#61DCDF"/>
<rect x="106.096" y="131.209" width="3.08225" height="3.10811" rx="1.34409" transform="rotate(45 106.096 131.209)" fill="#61DCDF"/>
<rect x="97.6182" y="139.687" width="3.08225" height="3.10811" rx="1.34409" transform="rotate(45 97.6182 139.687)" fill="#61DCDF"/>
<rect x="89.1387" y="148.166" width="3.08225" height="3.10811" rx="1.34409" transform="rotate(45 89.1387 148.166)" fill="#61DCDF"/>
<rect x="80.6602" y="156.645" width="3.08225" height="3.10811" rx="1.34409" transform="rotate(45 80.6602 156.645)" fill="#61DCDF"/>
</svg>
