<svg width="162" height="162" viewBox="0 0 162 162" fill="none" xmlns="http://www.w3.org/2000/svg">
<rect x="80.3799" width="3.08225" height="3.10811" rx="1.34409" transform="rotate(45 80.3799 0)" fill="#886CFF"/>
<rect x="89.0986" y="8.71872" width="3.08225" height="3.10811" rx="1.34409" transform="rotate(45 89.0986 8.71872)" fill="#886CFF"/>
<rect x="97.8164" y="17.4361" width="3.08225" height="3.10811" rx="1.34409" transform="rotate(45 97.8164 17.4361)" fill="#886CFF"/>
<rect x="106.533" y="26.1535" width="3.08225" height="3.10811" rx="1.34409" transform="rotate(45 106.533 26.1535)" fill="#886CFF"/>
<rect x="115.251" y="34.8708" width="3.08225" height="3.10811" rx="1.34409" transform="rotate(45 115.251 34.8708)" fill="#886CFF"/>
<rect x="123.97" y="43.5896" width="3.08225" height="3.10811" rx="1.34409" transform="rotate(45 123.97 43.5896)" fill="#886CFF"/>
<rect x="132.688" y="52.3083" width="3.08225" height="3.10811" rx="1.34409" transform="rotate(45 132.688 52.3083)" fill="#886CFF"/>
<rect x="141.405" y="61.0257" width="3.08225" height="3.10811" rx="1.34409" transform="rotate(45 141.405 61.0257)" fill="#886CFF"/>
<rect x="150.123" y="69.743" width="3.08225" height="3.10811" rx="1.34409" transform="rotate(45 150.123 69.743)" fill="#886CFF"/>
<rect x="158.842" y="78.4618" width="3.08225" height="3.10811" rx="1.34409" transform="rotate(45 158.842 78.4618)" fill="#886CFF"/>
<rect x="71.5889" y="8.79123" width="3.08225" height="3.10811" rx="1.34409" transform="rotate(45 71.5889 8.79123)" fill="#886CFF"/>
<rect x="80.3076" y="17.5099" width="3.08225" height="3.10811" rx="1.34409" transform="rotate(45 80.3076 17.5099)" fill="#886CFF"/>
<rect x="89.0244" y="26.2273" width="3.08225" height="3.10811" rx="1.34409" transform="rotate(45 89.0244 26.2273)" fill="#886CFF"/>
<rect x="97.7422" y="34.9447" width="3.08225" height="3.10811" rx="1.34409" transform="rotate(45 97.7422 34.9447)" fill="#886CFF"/>
<rect x="106.46" y="43.662" width="3.08225" height="3.10811" rx="1.34409" transform="rotate(45 106.46 43.662)" fill="#886CFF"/>
<rect x="115.179" y="52.3808" width="3.08225" height="3.10811" rx="1.34409" transform="rotate(45 115.179 52.3808)" fill="#886CFF"/>
<rect x="123.896" y="61.0995" width="3.08225" height="3.10811" rx="1.34409" transform="rotate(45 123.896 61.0995)" fill="#886CFF"/>
<rect x="132.614" y="69.8169" width="3.08225" height="3.10811" rx="1.34409" transform="rotate(45 132.614 69.8169)" fill="#886CFF"/>
<rect x="141.332" y="78.5342" width="3.08225" height="3.10811" rx="1.34409" transform="rotate(45 141.332 78.5342)" fill="#886CFF"/>
<rect x="150.051" y="87.253" width="3.08225" height="3.10811" rx="1.34409" transform="rotate(45 150.051 87.253)" fill="#886CFF"/>
<rect x="62.7979" y="17.5825" width="3.08225" height="3.10811" rx="1.34409" transform="rotate(45 62.7979 17.5825)" fill="#886CFF"/>
<rect x="71.5166" y="26.3012" width="3.08225" height="3.10811" rx="1.34409" transform="rotate(45 71.5166 26.3012)" fill="#886CFF"/>
<rect x="80.2334" y="35.0186" width="3.08225" height="3.10811" rx="1.34409" transform="rotate(45 80.2334 35.0186)" fill="#886CFF"/>
<rect x="88.9512" y="43.7359" width="3.08225" height="3.10811" rx="1.34409" transform="rotate(45 88.9512 43.7359)" fill="#886CFF"/>
<rect x="97.668" y="52.4533" width="3.08225" height="3.10811" rx="1.34409" transform="rotate(45 97.668 52.4533)" fill="#886CFF"/>
<rect x="106.387" y="61.172" width="3.08225" height="3.10811" rx="1.34409" transform="rotate(45 106.387 61.172)" fill="#886CFF"/>
<rect x="115.105" y="69.8907" width="3.08225" height="3.10811" rx="1.34409" transform="rotate(45 115.105 69.8907)" fill="#886CFF"/>
<rect x="123.823" y="78.6081" width="3.08225" height="3.10811" rx="1.34409" transform="rotate(45 123.823 78.6081)" fill="#886CFF"/>
<rect x="132.54" y="87.3255" width="3.08225" height="3.10811" rx="1.34409" transform="rotate(45 132.54 87.3255)" fill="#886CFF"/>
<rect x="141.259" y="96.0442" width="3.08225" height="3.10811" rx="1.34409" transform="rotate(45 141.259 96.0442)" fill="#886CFF"/>
<rect x="54.0068" y="26.3729" width="3.08225" height="3.10811" rx="1.34409" transform="rotate(45 54.0068 26.3729)" fill="#886CFF"/>
<rect x="62.7256" y="35.0916" width="3.08225" height="3.10811" rx="1.34409" transform="rotate(45 62.7256 35.0916)" fill="#886CFF"/>
<rect x="71.4434" y="43.809" width="3.08225" height="3.10811" rx="1.34409" transform="rotate(45 71.4434 43.809)" fill="#886CFF"/>
<rect x="80.1602" y="52.5264" width="3.08225" height="3.10811" rx="1.34409" transform="rotate(45 80.1602 52.5264)" fill="#886CFF"/>
<rect x="88.8779" y="61.2437" width="3.08225" height="3.10811" rx="1.34409" transform="rotate(45 88.8779 61.2437)" fill="#886CFF"/>
<rect x="97.5967" y="69.9625" width="3.08225" height="3.10811" rx="1.34409" transform="rotate(45 97.5967 69.9625)" fill="#886CFF"/>
<rect x="106.315" y="78.6812" width="3.08225" height="3.10811" rx="1.34409" transform="rotate(45 106.315 78.6812)" fill="#886CFF"/>
<rect x="115.032" y="87.3986" width="3.08225" height="3.10811" rx="1.34409" transform="rotate(45 115.032 87.3986)" fill="#886CFF"/>
<rect x="123.75" y="96.1159" width="3.08225" height="3.10811" rx="1.34409" transform="rotate(45 123.75 96.1159)" fill="#886CFF"/>
<rect x="132.469" y="104.835" width="3.08225" height="3.10811" rx="1.34409" transform="rotate(45 132.469 104.835)" fill="#886CFF"/>
<rect x="45.2158" y="35.1642" width="3.08225" height="3.10811" rx="1.34409" transform="rotate(45 45.2158 35.1642)" fill="#886CFF"/>
<rect x="53.9346" y="43.8829" width="3.08225" height="3.10811" rx="1.34409" transform="rotate(45 53.9346 43.8829)" fill="#886CFF"/>
<rect x="62.6514" y="52.6003" width="3.08225" height="3.10811" rx="1.34409" transform="rotate(45 62.6514 52.6003)" fill="#886CFF"/>
<rect x="71.3691" y="61.3176" width="3.08225" height="3.10811" rx="1.34409" transform="rotate(45 71.3691 61.3176)" fill="#886CFF"/>
<rect x="80.0869" y="70.035" width="3.08225" height="3.10811" rx="1.34409" transform="rotate(45 80.0869 70.035)" fill="#886CFF"/>
<rect x="88.8057" y="78.7537" width="3.08225" height="3.10811" rx="1.34409" transform="rotate(45 88.8057 78.7537)" fill="#886CFF"/>
<rect x="97.5244" y="87.4724" width="3.08225" height="3.10811" rx="1.34409" transform="rotate(45 97.5244 87.4724)" fill="#886CFF"/>
<rect x="106.241" y="96.1898" width="3.08225" height="3.10811" rx="1.34409" transform="rotate(45 106.241 96.1898)" fill="#886CFF"/>
<rect x="114.959" y="104.907" width="3.08225" height="3.10811" rx="1.34409" transform="rotate(45 114.959 104.907)" fill="#886CFF"/>
<rect x="123.678" y="113.626" width="3.08225" height="3.10811" rx="1.34409" transform="rotate(45 123.678 113.626)" fill="#886CFF"/>
<rect x="36.4248" y="43.9554" width="3.08225" height="3.10811" rx="1.34409" transform="rotate(45 36.4248 43.9554)" fill="#886CFF"/>
<rect x="45.1436" y="52.6741" width="3.08225" height="3.10811" rx="1.34409" transform="rotate(45 45.1436 52.6741)" fill="#886CFF"/>
<rect x="53.8604" y="61.3914" width="3.08225" height="3.10811" rx="1.34409" transform="rotate(45 53.8604 61.3914)" fill="#886CFF"/>
<rect x="62.5781" y="70.1088" width="3.08225" height="3.10811" rx="1.34409" transform="rotate(45 62.5781 70.1088)" fill="#886CFF"/>
<rect x="71.2949" y="78.8262" width="3.08225" height="3.10811" rx="1.34409" transform="rotate(45 71.2949 78.8262)" fill="#886CFF"/>
<rect x="80.0137" y="87.5449" width="3.08225" height="3.10811" rx="1.34409" transform="rotate(45 80.0137 87.5449)" fill="#886CFF"/>
<rect x="88.7324" y="96.2636" width="3.08225" height="3.10811" rx="1.34409" transform="rotate(45 88.7324 96.2636)" fill="#886CFF"/>
<rect x="97.4502" y="104.981" width="3.08225" height="3.10811" rx="1.34409" transform="rotate(45 97.4502 104.981)" fill="#886CFF"/>
<rect x="106.168" y="113.698" width="3.08225" height="3.10811" rx="1.34409" transform="rotate(45 106.168 113.698)" fill="#886CFF"/>
<rect x="114.887" y="122.417" width="3.08225" height="3.10811" rx="1.34409" transform="rotate(45 114.887 122.417)" fill="#886CFF"/>
<rect x="27.6328" y="52.7466" width="3.08225" height="3.10811" rx="1.34409" transform="rotate(45 27.6328 52.7466)" fill="#886CFF"/>
<rect x="19.1553" y="61.2247" width="3.08225" height="3.10811" rx="1.34409" transform="rotate(45 19.1553 61.2247)" fill="#886CFF"/>
<rect x="10.6768" y="69.7036" width="3.08225" height="3.10811" rx="1.34409" transform="rotate(45 10.6768 69.7036)" fill="#886CFF"/>
<rect x="2.19727" y="78.1825" width="3.08225" height="3.10811" rx="1.34409" transform="rotate(45 2.19727 78.1825)" fill="#886CFF"/>
<rect x="36.3516" y="61.4653" width="3.08225" height="3.10811" rx="1.34409" transform="rotate(45 36.3516 61.4653)" fill="#886CFF"/>
<rect x="27.874" y="69.9435" width="3.08225" height="3.10811" rx="1.34409" transform="rotate(45 27.874 69.9435)" fill="#886CFF"/>
<rect x="19.3955" y="78.4223" width="3.08225" height="3.10811" rx="1.34409" transform="rotate(45 19.3955 78.4223)" fill="#886CFF"/>
<rect x="10.916" y="86.9012" width="3.08225" height="3.10811" rx="1.34409" transform="rotate(45 10.916 86.9012)" fill="#886CFF"/>
<rect x="45.0693" y="70.1827" width="3.08225" height="3.10811" rx="1.34409" transform="rotate(45 45.0693 70.1827)" fill="#886CFF"/>
<rect x="36.5908" y="78.6608" width="3.08225" height="3.10811" rx="1.34409" transform="rotate(45 36.5908 78.6608)" fill="#886CFF"/>
<rect x="28.1123" y="87.1397" width="3.08225" height="3.10811" rx="1.34409" transform="rotate(45 28.1123 87.1397)" fill="#886CFF"/>
<rect x="19.6338" y="95.6186" width="3.08225" height="3.10811" rx="1.34409" transform="rotate(45 19.6338 95.6186)" fill="#886CFF"/>
<rect x="53.7871" y="78.9001" width="3.08225" height="3.10811" rx="1.34409" transform="rotate(45 53.7871 78.9001)" fill="#886CFF"/>
<rect x="45.3086" y="87.3782" width="3.08225" height="3.10811" rx="1.34409" transform="rotate(45 45.3086 87.3782)" fill="#886CFF"/>
<rect x="36.8301" y="95.857" width="3.08225" height="3.10811" rx="1.34409" transform="rotate(45 36.8301 95.857)" fill="#886CFF"/>
<rect x="28.3506" y="104.336" width="3.08225" height="3.10811" rx="1.34409" transform="rotate(45 28.3506 104.336)" fill="#886CFF"/>
<rect x="62.5039" y="87.6174" width="3.08225" height="3.10811" rx="1.34409" transform="rotate(45 62.5039 87.6174)" fill="#886CFF"/>
<rect x="54.0264" y="96.0955" width="3.08225" height="3.10811" rx="1.34409" transform="rotate(45 54.0264 96.0955)" fill="#886CFF"/>
<rect x="45.5469" y="104.574" width="3.08225" height="3.10811" rx="1.34409" transform="rotate(45 45.5469 104.574)" fill="#886CFF"/>
<rect x="37.0684" y="113.053" width="3.08225" height="3.10811" rx="1.34409" transform="rotate(45 37.0684 113.053)" fill="#886CFF"/>
<rect x="71.2227" y="96.3362" width="3.08225" height="3.10811" rx="1.34409" transform="rotate(45 71.2227 96.3362)" fill="#886CFF"/>
<rect x="62.7451" y="104.814" width="3.08225" height="3.10811" rx="1.34409" transform="rotate(45 62.7451 104.814)" fill="#886CFF"/>
<rect x="54.2656" y="113.293" width="3.08225" height="3.10811" rx="1.34409" transform="rotate(45 54.2656 113.293)" fill="#886CFF"/>
<rect x="45.7871" y="121.772" width="3.08225" height="3.10811" rx="1.34409" transform="rotate(45 45.7871 121.772)" fill="#886CFF"/>
<rect x="79.9414" y="105.055" width="3.08225" height="3.10811" rx="1.34409" transform="rotate(45 79.9414 105.055)" fill="#886CFF"/>
<rect x="71.4639" y="113.533" width="3.08225" height="3.10811" rx="1.34409" transform="rotate(45 71.4639 113.533)" fill="#886CFF"/>
<rect x="62.9844" y="122.012" width="3.08225" height="3.10811" rx="1.34409" transform="rotate(45 62.9844 122.012)" fill="#886CFF"/>
<rect x="54.5059" y="130.491" width="3.08225" height="3.10811" rx="1.34409" transform="rotate(45 54.5059 130.491)" fill="#886CFF"/>
<rect x="88.6592" y="113.772" width="3.08225" height="3.10811" rx="1.34409" transform="rotate(45 88.6592 113.772)" fill="#886CFF"/>
<rect x="80.1807" y="122.25" width="3.08225" height="3.10811" rx="1.34409" transform="rotate(45 80.1807 122.25)" fill="#886CFF"/>
<rect x="71.7021" y="130.729" width="3.08225" height="3.10811" rx="1.34409" transform="rotate(45 71.7021 130.729)" fill="#886CFF"/>
<rect x="63.2227" y="139.208" width="3.08225" height="3.10811" rx="1.34409" transform="rotate(45 63.2227 139.208)" fill="#886CFF"/>
<rect x="97.376" y="122.49" width="3.08225" height="3.10811" rx="1.34409" transform="rotate(45 97.376 122.49)" fill="#886CFF"/>
<rect x="88.8984" y="130.968" width="3.08225" height="3.10811" rx="1.34409" transform="rotate(45 88.8984 130.968)" fill="#886CFF"/>
<rect x="80.4189" y="139.447" width="3.08225" height="3.10811" rx="1.34409" transform="rotate(45 80.4189 139.447)" fill="#886CFF"/>
<rect x="71.9404" y="147.926" width="3.08225" height="3.10811" rx="1.34409" transform="rotate(45 71.9404 147.926)" fill="#886CFF"/>
<rect x="106.095" y="131.208" width="3.08225" height="3.10811" rx="1.34409" transform="rotate(45 106.095 131.208)" fill="#886CFF"/>
<rect x="97.6172" y="139.686" width="3.08225" height="3.10811" rx="1.34409" transform="rotate(45 97.6172 139.686)" fill="#886CFF"/>
<rect x="89.1377" y="148.165" width="3.08225" height="3.10811" rx="1.34409" transform="rotate(45 89.1377 148.165)" fill="#886CFF"/>
<rect x="80.6592" y="156.644" width="3.08225" height="3.10811" rx="1.34409" transform="rotate(45 80.6592 156.644)" fill="#886CFF"/>
</svg>
